<?xml version="1.0" standalone="no"?>
<!DOCTYPE svg PUBLIC "-//W3C//DTD SVG 20010904//EN"
 "http://www.w3.org/TR/2001/REC-SVG-20010904/DTD/svg10.dtd">
<svg version="1.0" xmlns="http://www.w3.org/2000/svg"
 width="700.000000pt" height="700.000000pt" viewBox="0 0 700.000000 700.000000"
 preserveAspectRatio="xMidYMid meet">
<metadata>
Created by potrace 1.11, written by Peter Selinger 2001-2013
</metadata>
<g transform="translate(0.000000,700.000000) scale(0.100000,-0.100000)"
fill="#000000" stroke="none">
<path d="M3310 6751 c-285 -225 -389 -307 -465 -366 -43 -33 -85 -67 -95 -75
-9 -8 -32 -26 -50 -40 -18 -14 -92 -71 -164 -128 -72 -57 -144 -113 -161 -126
-173 -136 -294 -231 -310 -245 -11 -9 -38 -30 -60 -46 -22 -16 -42 -32 -45
-35 -4 -5 -84 -68 -191 -151 -19 -15 -101 -80 -184 -146 -82 -65 -235 -186
-340 -268 -104 -82 -197 -155 -205 -162 -8 -6 -127 -101 -265 -209 -587 -465
-623 -494 -632 -522 -5 -15 -9 -34 -8 -42 0 -8 -4 -18 -10 -22 -6 -5 -5 -8 3
-8 7 0 23 -11 35 -25 14 -16 39 -28 69 -34 72 -13 1375 -1 1566 14 l53 5 -23
-20 c-13 -11 -104 -84 -203 -161 -343 -269 -927 -729 -960 -757 -11 -9 -37
-29 -57 -44 -20 -15 -42 -33 -50 -40 -7 -7 -31 -26 -53 -42 -22 -17 -42 -32
-45 -36 -3 -3 -21 -17 -42 -32 -20 -15 -42 -33 -50 -40 -7 -7 -38 -32 -68 -55
-83 -63 -100 -85 -102 -127 -1 -21 -7 -40 -15 -43 -7 -3 -13 -10 -13 -15 0 -6
6 -8 14 -5 7 3 36 -6 64 -19 45 -22 70 -25 224 -31 218 -9 1621 -10 1951 -1
l248 6 -23 -19 c-12 -11 -45 -41 -73 -67 -28 -26 -98 -90 -155 -142 -57 -52
-115 -106 -130 -120 -15 -14 -51 -47 -81 -75 -131 -120 -265 -242 -293 -269
-42 -38 -164 -150 -356 -326 -139 -127 -191 -174 -280 -257 -41 -38 -99 -91
-129 -119 -66 -60 -84 -76 -147 -135 -27 -25 -80 -74 -119 -109 -69 -63 -227
-208 -352 -324 -35 -32 -72 -67 -83 -76 -57 -50 -224 -204 -287 -266 -59 -58
-73 -77 -73 -102 0 -44 18 -78 49 -92 40 -18 6251 -14 6524 5 31 2 77 13 101
24 41 20 43 23 45 69 l1 47 -338 335 c-401 397 -1249 1232 -1482 1460 -238
233 -580 571 -580 574 0 1 24 1 53 -1 28 -2 564 -5 1189 -6 l1136 -2 25 23
c30 28 41 73 25 108 -10 20 -97 94 -358 301 -8 7 -65 52 -125 100 -61 48 -128
102 -150 118 -21 17 -55 44 -74 60 -20 17 -67 55 -106 85 -38 30 -72 57 -75
60 -3 3 -46 37 -96 76 -50 40 -100 79 -110 87 -10 9 -93 75 -184 147 -91 72
-172 136 -180 143 -8 7 -37 30 -65 52 -27 22 -63 51 -80 65 l-30 25 380 1
c209 0 490 4 625 8 554 15 542 14 569 71 12 25 12 34 0 67 -12 31 -55 70 -249
224 -129 103 -251 200 -270 215 -41 33 -241 192 -620 493 -323 257 -342 272
-390 311 -20 17 -51 41 -70 55 -18 14 -81 63 -139 110 -59 47 -226 180 -371
296 -146 116 -411 327 -590 469 -548 436 -547 436 -588 433 -29 -2 -64 -24
-182 -117z"/>
</g>
</svg>
