<?xml version="1.0" encoding="UTF-8"?>
<!-- Created with Inkscape (http://www.inkscape.org/) -->
<svg width="210mm" height="210mm" version="1.1" viewBox="0 0 210 210" xmlns="http://www.w3.org/2000/svg" xmlns:cc="http://creativecommons.org/ns#" xmlns:dc="http://purl.org/dc/elements/1.1/" xmlns:rdf="http://www.w3.org/1999/02/22-rdf-syntax-ns#">
 <metadata>
  <rdf:RDF>
   <cc:Work rdf:about="">
    <dc:format>image/svg+xml</dc:format>
    <dc:type rdf:resource="http://purl.org/dc/dcmitype/StillImage"/>
    <dc:title/>
   </cc:Work>
  </rdf:RDF>
 </metadata>
 <g transform="translate(0,-87)">
  <g fill="none" stroke="#000" stroke-width=".55774px">
   <path d="m4.4357 171.92 198.68-0.84037-98.206-78.154z"/>
   <path d="m5.5774 215.65 198.68-0.84039-98.206-78.154z"/>
   <path d="m107.17 195.45 96.695 94.962h-200.19z"/>
  </g>
  <g fill-opacity="0" stroke="#285943" stroke-linecap="square" stroke-linejoin="round">
   <g stroke-width="5.634">
    <path d="m7.1368 288.06c0.96505-0.92618 18.956-17.461 39.979-36.744l38.224-35.06 41.603-0.69578 36.968 36.349c20.332 19.992 37.267 36.684 37.632 37.092 0.53146 0.59422-19.02 0.74278-97.749 0.74278h-98.413z"/>
    <path d="m13.985 285.97c0.4302-0.44108 12.561-11.595 26.957-24.786 14.396-13.191 30.437-27.897 35.648-32.679l9.4734-8.6952 7.3039-0.38966c4.0172-0.21433 13.022-0.38969 20.011-0.38969h12.707l67.944 66.851-34.077 0.36106c-18.742 0.1986-59.428 0.39917-90.413 0.44568-47.312 0.0711-56.211-0.0439-55.554-0.71731z"/>
    <path d="m23.126 281.85c32.294-30.036 63.83-58.427 65.246-58.739 0.94243-0.20762 9.5258-0.54126 19.074-0.74144l17.361-0.36394 61.22 60.312-10.311 0.36665c-5.6712 0.20166-42.642 0.3926-82.157 0.42431l-71.846 0.0577z"/>
    <path d="m31.341 278.53c3.6188-3.8388 52.059-47.571 56.426-50.942l1.9553-1.5093 34.15-0.68903 25.84 25.425c14.212 13.984 26.557 26.192 27.432 27.129l1.5922 1.7038h-74.225c-72.672 0-74.203-0.0232-73.171-1.1175z"/>
    <path d="m53.715 276.09-15.003-0.31109 7.4991-6.8336c14.16-12.903 36.399-32.85 40.402-36.237l4.0063-3.3902 32.143-0.71024 20.252 19.948c11.139 10.971 22.055 21.776 24.258 24.009l4.0063 4.0612-51.28-0.11224c-28.204-0.0618-58.032-0.25242-66.284-0.4235z"/>
    <path d="m8.6434 214.07c0.4302-0.44014 12.595-10.067 27.034-21.392l26.251-20.592h87.791l52.936 42.19-36.254-0.0189c-31.031-0.0155-36.403-0.1446-37.291-0.89135-0.57029-0.47985-1.652-0.87353-2.4038-0.87489-1.0006-2e-3 -3.7913-2.3844-10.416-8.8926-7.6134-7.4798-9.1796-8.7756-9.8734-8.1682-0.45353 0.39705-4.968 4.5324-10.032 9.1897-6.8863 6.333-9.5819 8.4725-10.692 8.4866-0.81655 0.0103-1.9512 0.41153-2.5215 0.89135-1.4927 1.256-75.757 1.3279-74.529 0.0723z"/>
    <path d="m21.712 211.4-4.2734-0.38431 45.747-35.951h85.261l22.1 17.598c12.155 9.6789 22.34 17.856 22.634 18.172 0.34338 0.36872-10.627 0.4279-30.715 0.1656-25.161-0.32847-31.728-0.57721-33.71-1.2767-1.7521-0.61856-4.4448-2.7671-9.348-7.4589-12.102-11.58-12.22-11.629-17.149-7.1689-15.906 14.393-16.062 14.52-19.168 15.511-2.4634 0.78642-54.041 1.4527-61.379 0.79291z"/>
    <path d="m92.57 212.22c3.2447-3.2897 14.403-12.872 14.799-12.709 0.88626 0.36499 13.432 12.681 13.024 12.786-0.21657 0.0554-6.7275 0.22524-14.469 0.37718-11.157 0.21899-13.926 0.12497-13.354-0.45434z"/>
    <path d="m100.5 209.29c0-0.13135 1.4751-1.4582 3.278-2.9486 3.6638-3.0287 3.5168-3.0447 7.4054 0.80464l2.4038 2.3795-6.5436 2e-3c-3.599 6e-4 -6.5436-0.10587-6.5436-0.23716z"/>
    <path d="m6.7548 171.02c0.2938-0.34437 22.499-17.887 49.346-38.985l48.811-38.359 3.5658 2.8095c1.9612 1.5452 23.561 18.72 47.999 38.166l44.433 35.357-11.61 0.37038c-22.502 0.71785-36.072 0.57588-37.219-0.38926-0.57029-0.47986-1.7806-0.87245-2.6897-0.87245-1.3041 0-5.368-2.962-19.262-14.039-9.6848-7.7216-19.062-15.193-20.838-16.604l-3.2289-2.5643-21.076 16.6c-16.37 12.893-21.437 16.601-22.693 16.604-0.88947 2e-3 -2.1266 0.40037-2.7492 0.88551-0.94616 0.73722-5.4167 0.94477-27.228 1.2642-18.277 0.26765-25.936 0.19456-25.562-0.24399z"/>
    <path d="m16.397 167.4c0.50233-0.52822 13.402-10.702 62.879-49.592 15.758-12.386 25.766-19.889 26.174-19.623 0.36344 0.23712 20.011 15.827 43.662 34.644l43.001 34.213-19.119 0.15596c-12.159 0.0991-19.487-0.063-20.13-0.44567-0.55592-0.33098-1.481-0.60177-2.0558-0.60177-1.3914 0-7.257-4.3678-27.018-20.119-9.6384-7.6826-17.001-13.158-17.694-13.158-0.67899 0-7.2088 4.7364-15.275 11.08-29.588 23.268-28.258 22.423-36.792 23.372-6.2038 0.68927-38.277 0.75269-37.632 0.0744z"/>
    <path d="m25.985 163.87c1.1851-1.3182 70.825-55.89 76.228-59.733l3.0464-2.1675 77.399 61.504-14.146 0.15837c-8.8117 0.0988-14.945-0.0809-16.264-0.47589-2.2696-0.67985-6.7482-3.9472-22.414-16.353-16.617-13.159-21.873-16.904-23.724-16.904-1.9825 0-6.9361 3.5193-26.595 18.895-7.5763 5.9256-15.616 11.786-17.866 13.024l-4.0911 2.2497-16.054 0.1987c-10.701 0.13255-15.876 6e-4 -15.519-0.39546z"/>
    <path d="m35.333 160.55c0-0.43841 68.023-53.682 69.308-54.248 0.49855-0.22005 65.428 50.607 68.215 53.399 0.28314 0.28367-3.9724 0.50842-9.6272 0.50842h-10.135l-3.1929-2.1043c-1.7561-1.1574-10.404-7.7304-19.218-14.607-8.8138-6.8763-17.49-13.417-19.281-14.534-5.9526-3.7139-7.0129-3.2716-24.521 10.229-16.206 12.497-23.624 17.944-27.094 19.893l-3.0563 1.7169h-10.699c-5.8843 0-10.699-0.11379-10.699-0.25269z"/>
    <path d="m45.01 156.74c2.8091-2.4059 53.125-41.736 57.455-44.911l2.2293-1.6344 3.9137 2.9404c5.3844 4.0454 30.303 23.462 44.408 34.603l11.649 9.201-5.2008 0.17145c-6.2532 0.20605-3.8065 1.6792-27.578-16.604-19.531-15.022-21.88-16.547-25.497-16.547-4.4048 0-5.7632 0.85706-26.718 16.859-6.9035 5.2716-15.05 11.256-18.104 13.299l-5.5525 3.7139h-6.139c-6.0628 0-6.1232-0.0138-4.8651-1.091z"/>
    <path d="m52.961 154.61c0-0.13375 8.3531-6.7742 18.562-14.756 27.865-21.786 32.587-25.408 33.13-25.408 0.27285 0 4.198 2.8482 8.7225 6.3294 13.649 10.502 38.638 30.063 39.208 30.692 1.911 2.1088-3.5481-1.7864-18.321-13.072-20.325-15.528-23.373-17.413-28.156-17.413-1.88 0-4.0906 0.32414-4.9124 0.72026-2.8675 1.3823-9.4705 6.0297-21.198 14.92-19.325 14.65-27.036 19.78-27.036 17.988z"/>
   </g>
   <g stroke-width=".99596">
    <path d="m155.59 154.07c-0.49449-0.12859-0.54369-0.2002-0.34216-0.49688l0.16862-0.24827 0.48728 0.38942c0.268 0.2142 0.48726 0.40865 0.48726 0.43211 0 0.0677-0.39125 0.0305-0.801-0.0763z"/>
    <path d="m68.34 169.01c0.04933-0.0506 1.0018-0.76697 2.1166-1.592 4.3246-3.2004 7.6404-5.7821 25.992-20.237 5.2312-4.1204 9.5549-7.4917 9.6082-7.4917 0.0533 0 6.0777 4.7646 13.388 10.588 16.093 12.82 21.292 16.904 23.418 18.394 0.27265 0.19111 0.49574 0.36618 0.49574 0.38905 0 0.0227-16.899 0.0415-37.554 0.0415-21.478 0-37.516-0.0394-37.465-0.0919z"/>
    <path d="m141.05 169.01c-0.81072-0.0506-0.91493-0.0778-0.77905-0.20261 0.0863-0.0794 0.15688-0.19344 0.15688-0.25363 0-0.0756-6.0163-0.0936-19.523-0.058-10.738 0.0284-26.571 0.0241-35.184-9e-3l-15.661-0.0604 2.4384-1.8383c2.6663-2.0101 8.0927-6.2246 14.2-11.028 2.1553-1.6954 7.0208-5.5165 10.812-8.4912 3.7913-2.9748 7.2691-5.7113 7.7285-6.0811l0.83516-0.67234 0.29798 0.26807c0.1639 0.14735 0.63793 0.53813 1.0534 0.86826 27.226 21.632 31.105 24.698 33.436 26.426 0.79711 0.59099 1.4507 1.11 1.4525 1.1534 1e-3 0.0434-0.0711 0.0695-0.16199 0.0583-0.0908-0.0103-0.58642-0.0468-1.1012-0.0787z"/>
    <path d="m77.269 167.87-5.514-0.0282 1.9729-1.5018c3.9957-3.0417 18.308-14.237 31.025-24.269l1.2905-1.0179 10.891 8.6491c12.15 9.6495 19.695 15.615 21.609 17.088 0.70114 0.53939 1.3152 1.0207 1.3645 1.0697 0.0785 0.0778-47.748 0.0857-62.639 0.0103z"/>
    <path d="m76.942 164.56c5.2612-4.0674 13.16-10.247 23.925-18.717 2.7266-2.1454 5.0114-3.9365 5.0772-3.9801 0.077-0.0511 3.6822 2.7477 10.104 7.8437 13.049 10.355 18.603 14.75 20.513 16.232 0.85693 0.66502 1.5984 1.2488 1.6478 1.2973 0.0494 0.0485-14.52 0.0881-32.376 0.0881h-32.466z"/>
    <path d="m75.612 166.29c5.1411-3.9861 13.149-10.241 20.847-16.283l9.5208-7.4731 1.1969 0.91464c1.7086 1.3056 6.695 5.2366 15.975 12.594 4.4405 3.5204 9.2755 7.3453 10.744 8.4998l2.6707 2.0992-15.56 0.0634c-8.5582 0.0348-22.421 0.0704-30.805 0.0788l-15.245 0.0155z"/>
    <path d="m76.674 166.15c0.03639-0.0344 2.2758-1.78 4.9764-3.8789 4.315-3.3536 15.719-12.275 22.126-17.309l2.2019-1.73 0.77263 0.58427c1.1648 0.88083 5.6266 4.3966 17.425 13.73l10.689 8.4562-7.2494 0.0744c-9.3193 0.0957-51.029 0.15527-50.942 0.0732z"/>
   </g>
   <g stroke-width="3.9838">
    <path d="m80.39 164.14c6.4648-5.1553 25.43-19.834 25.625-19.834 0.21801 0 23.578 18.286 25.852 20.236 0.87703 0.75238 0.19025 0.77278-26.025 0.77278h-26.925z"/>
    <path d="m85.66 162.85c0.39945-0.40942 15.438-12.069 18.646-14.456l2.045-1.522 1.1656 0.90973c0.64107 0.50038 1.2193 1.0485 1.2849 1.2182 0.0656 0.16973 3.9524 3.2963 8.6372 6.9482l8.5179 6.6398-3.9157 0.26365c-6.1535 0.41431-36.785 0.41333-36.38-1e-3z"/>
    <path d="m92.459 160.33c0.19736-0.19972 3.3891-2.6837 7.0928-5.5199l6.734-5.1568 1.0092 0.89099c0.55504 0.49005 3.6219 2.974 6.8152 5.5199l5.806 4.6289h-13.908c-7.8398 0-13.751-0.15854-13.549-0.36311z"/>
   </g>
   <g stroke-width="7.9677">
    <path d="m84.814 168.81c3.6145-0.15355 9.7335-0.15441 13.598-2e-3 3.8643 0.15269 0.90695 0.2786-6.5718 0.27949-7.4788 5.7e-4 -10.64-0.12428-7.026-0.2779z"/>
    <path d="m117.34 168.76c-1.7658-0.14202-3.2106-0.61484-3.2106-1.0505 0-0.97296 15.332-0.87763 18.508 0.11516 1.4361 0.44879-0.19696 0.54647-4.4579 0.26662-3.6983-0.24291-6.9278-0.13376-7.1766 0.24278-0.24881 0.37642-1.8971 0.56814-3.663 0.426z"/>
    <path d="m27.628 207.37c0.41549-0.47769 8.7284-7.128 18.473-14.778l17.718-13.91h83.97l16.974 13.542c9.3356 7.4484 17.647 14.069 18.471 14.712 1.2866 1.005-2.0037 1.104-23.418 0.70457-13.703-0.25561-26.31-0.65093-28.014-0.8785-2.535-0.33855-4.5957-1.7972-11.331-8.0208-8.8435-8.171-12.331-10.384-15.132-9.6021-0.97575 0.27243-4.4119 2.8733-7.6359 5.7798-3.224 2.9064-7.8747 6.9654-10.335 9.0199l-4.4733 3.7355-28.01 0.28214c-19.268 0.19407-27.775 0.0103-27.255-0.58642z"/>
    <path d="m40.848 202.7c0-0.1948 5.5784-4.7328 12.396-10.084l12.396-9.7303h80.288l24.901 19.749-7.7672 0.27231c-4.272 0.14976-13.248 0.0176-19.947-0.29486l-12.18-0.56712-8.2107-7.1449c-9.395-8.1755-12.805-10.335-16.314-10.33-3.1225 3e-3 -5.4389 1.582-16.081 10.956l-8.5479 7.5291h-20.467c-11.257 0-20.467-0.1594-20.467-0.35409z"/>
    <path d="m55.973 198.1c-1.7247-0.53438-1.3414-0.9925 4.8509-5.7988l6.7235-5.2186h12.839c7.0613 0 12.697 0.14839 12.524 0.32931-0.17312 0.18112-3.1747 2.8283-6.6701 5.8826l-6.3554 5.5533-11.02-0.0838c-6.0608-0.0461-11.862-0.34485-12.892-0.66397z"/>
    <path d="m133.01 197.38c-0.62324-0.27123-3.6569-2.6049-6.7415-5.186l-5.6084-4.6929 23.224-0.46573 4.9501 3.8237c2.7225 2.103 5.7999 4.563 6.8386 5.4665l1.8886 1.6428-11.709-0.0475c-6.4401-0.0262-12.219-0.26956-12.842-0.54073z"/>
   </g>
   <path d="m137.06 193.46-2.7308-0.11912-1.1404-0.86088-1.1404-0.86089 2.1352-0.0914c1.1743-0.0503 3.5945-0.10019 5.3782-0.11138l3.2431-0.0201 1.3642 1.058c0.7503 0.5819 1.3892 1.0833 1.4198 1.1142 0.0912 0.0919-5.5875 0.0198-8.5288-0.10845z" stroke-width="1.4085"/>
   <path d="m136.06 192.62c-2.7713-0.0945-1.5873-0.26644 2.337-0.33941 3.7061-0.0688 4.1091-0.0523 4.4737 0.1832 0.38883 0.25129 0.31412 0.25807-2.5373 0.23034-1.6159-0.0155-3.5389-0.0491-4.2734-0.074z" stroke-width="1.4085"/>
   <path d="m105.95 158.41c1.4322-0.0534 3.7759-0.0534 5.2082 0 1.4322 0.0534 0.26041 0.0973-2.6041 0.0973-2.8645 0-4.0363-0.0439-2.6041-0.0973z" stroke-width="2.817"/>
   <path d="m98.694 158.22c0.06122-0.0645 1.7747-1.391 3.8078-2.948l3.6965-2.8308 2.618 2.1309 2.618 2.1309-3.4539 0.14873c-3.3806 0.14546-3.9458 0.3255-3.963 1.2627-2e-3 0.12257-1.226 0.22284-2.7195 0.22284-1.4935 0-2.6653-0.0527-2.6041-0.11723z" stroke-width="2.817"/>
   <path d="m67.591 194.3-2.3687-0.1668 1.8597-1.4113 1.8597-1.4113h13.258l-3.6929 3.2431-4.2734-0.0435c-2.3504-0.0238-5.3393-0.1186-6.6421-0.21025z" stroke-width="2.817"/>
   <path d="m113.11 158.38c-4.9e-4 -0.11223-0.0201-0.28436-0.0437-0.38222-0.0391-0.16267-9e-3 -0.15097 0.35146 0.14064 0.21685 0.17526 0.42282 0.34726 0.4577 0.38224 0.0359 0.036-0.11602 0.0637-0.35055 0.0637-0.40688 0-0.41399-3e-3 -0.4149-0.20426z" stroke-width=".70425"/>
   <path d="m104.47 155.63c0.12488-0.14064 1.6429-1.282 1.705-1.282 0.0341 0 0.33946 0.22559 0.67871 0.50136l0.6168 0.5014-0.83257 0.053c-0.82315 0.0523-1.7442 0.16594-2.0678 0.25544-0.11239 0.0312-0.14511 0.0213-0.1001-0.0293z" stroke-width="5.5774"/>
   <path d="m105.75 155.09c0-5e-3 0.13629-0.10466 0.36159-0.26549l0.0605-0.0432 0.14598 0.11206c0.19881 0.15269 0.19617 0.14942 0.11015 0.14959-0.0387 9e-5 -0.19522 0.0121-0.34779 0.0262-0.28731 0.0268-0.3305 0.0298-0.3305 0.0208z" stroke-width=".1245"/>
   <g stroke-width=".062248">
    <path d="m104.31 118.07c0.11938-0.0905 0.31043-0.22201 0.31694-0.21791 0.0384 0.0239 0.27002 0.18922 0.26822 0.19123-1e-3 1e-3 -0.0671 7e-3 -0.14621 0.0121-0.22983 0.0155-0.41935 0.0294-0.44486 0.0334l-0.0236 3e-3z"/>
    <path d="m104.41 118.04c0-2e-3 0.0232-0.0193 0.0517-0.0391 0.11156-0.0782 0.1627-0.11052 0.17045-0.10725 4e-3 2e-3 0.0447 0.0296 0.0892 0.0609 0.0532 0.0375 0.0771 0.058 0.0694 0.0587-6e-3 5.9e-4 -0.0835 5e-3 -0.17116 0.0121-0.0875 5e-3 -0.17064 0.0121-0.18443 0.0138-0.0138 2e-3 -0.0251 2e-3 -0.0251 5.7e-4z"/>
    <path d="m104.54 118c8e-3 -9e-3 0.0862-0.0561 0.0932-0.0561 5e-3 0 0.0216 9e-3 0.0379 0.021 0.0277 0.0196 0.0286 0.0212 0.0153 0.025-0.0166 5e-3 -0.14994 0.0138-0.14637 0.0103z"/>
   </g>
   <g stroke-width="5.634">
    <path d="m49.313 272.56-2.0899-0.36136 9.5553-8.6163c16.583-14.953 29.135-26.155 32.079-28.628l2.845-2.3895 15.106-0.28951 15.106-0.28943 18.429 18.243c10.136 10.034 19.484 19.282 20.774 20.552l2.3454 2.309-56.03-0.0845c-30.816-0.0463-56.97-0.24694-58.12-0.44566z"/>
    <path d="m102.71 269.53-47.516-0.30194 13.596-12.223c7.4778-6.7226 15.921-14.24 18.762-16.706l5.1663-4.4832 28.128-0.56919 16.547 16.396c9.1006 9.018 17.033 16.855 17.628 17.416 1.0431 0.98436 0.97798 1.0158-1.8569 0.89615-1.6159-0.0682-24.32-0.25983-50.454-0.42589z"/>
    <path d="m81.351 265.97-17.593-0.30934 29.31-26.124 4.0063-0.41441c2.2035-0.22793 8.2271-0.43342 13.386-0.45669l9.3796-0.0422 13.323 13.137c7.3274 7.2256 13.675 13.51 14.105 13.964 0.66871 0.70706-2.7793 0.80724-23.771 0.69067-13.504-0.0749-32.47-0.27553-42.146-0.44566z"/>
    <path d="m76.056 262.43-3.6579-0.34074 10.026-8.9134c5.5144-4.9024 10.526-9.3134 11.136-9.8021 0.87214-0.69825 3.6858-0.96245 13.129-1.2329l12.019-0.34423 9.348 9.1947c5.1414 5.0571 9.9435 9.8235 10.671 10.592l1.3233 1.3973-30.169-0.10501c-16.593-0.0577-31.815-0.25826-33.826-0.44567z"/>
    <path d="m81.068 258.61c0.4302-0.44761 3.7863-3.4559 7.4579-6.6851l6.6757-5.8712 5.3431-0.38271c2.9387-0.21049 7.9987-0.41104 11.244-0.44569l5.9013-0.063 5.8504 5.7008c3.2178 3.1355 6.4459 6.3443 7.1737 7.1308l1.3233 1.4299h-25.876c-21.93 0-25.757-0.12411-25.094-0.81383z"/>
    <path d="m93.746 255.89-4.6634-0.33337 3.2827-2.9176c3.9798-3.5373 5.0438-3.7992 16.086-3.9602l8.3743-0.12205 7.7582 7.8402-13.087-0.0866c-7.198-0.0479-15.186-0.23685-17.751-0.4202z"/>
   </g>
   <path d="m108.27 253.25c-3.8433-0.0479-8.0501-0.12291-9.3485-0.16663l-2.3607-0.0794 0.67893-0.28429c0.78105-0.32709 1.8248-0.55669 3.2384-0.71239 1.1688-0.12859 6.0609-0.28288 11.475-0.36151l3.8716-0.0563 0.84987 0.88921 0.84987 0.88925-1.1331-0.0155c-0.62324-9e-3 -4.2776-0.0547-8.1209-0.10276z" stroke-width=".99596"/>
   <path d="m112.21 252.77c0.0908-0.0263 0.23961-0.0263 0.33049 0 0.0909 0.0265 0.0166 0.0482-0.16525 0.0482-0.18177 0-0.25613-0.0215-0.16524-0.0482z" stroke-width=".99596"/>
   <g stroke-width=".24899">
    <path d="m114.17 252.78c-0.59296-7e-3 -1.0824-0.0198-1.0876-0.0272-5e-3 -7e-3 -0.0221-0.0627-0.0378-0.12291-0.0397-0.15372-0.26557-0.36423-0.42323-0.39424-0.1556-0.0298-0.44889-0.0176-0.55248 0.0234-0.12909 0.0506-0.31991 0.26378-0.35095 0.39204l-0.0257 0.10638-0.66541-0.0155c-0.36597-9e-3 -1.2497-0.0217-1.9638-0.0298-4.272-0.0472-8.7477-0.12739-8.7183-0.15648 4e-3 -3e-3 0.16662-0.0205 0.36137-0.0367 1.5428-0.12877 6.1156-0.26703 11.367-0.34334 0.9803-0.0138 2.186-0.0325 2.6794-0.0403l0.89706-0.0138 0.31871 0.3413 0.3187 0.34125-0.51936-5e-3c-0.28564-3e-3 -1.0045-0.0103-1.5974-0.0189z"/>
    <path d="m113.63 252.63-0.4541-7e-3 -0.0385-0.0849c-0.0211-0.0466-0.0642-0.1155-0.0958-0.15303l-0.0574-0.0682 0.70332-0.0176c0.38682-9e-3 0.97385-0.0188 1.3045-0.0205l0.6012-3e-3 0.17784 0.18589 0.17783 0.1859-0.93248-5e-3c-0.51287-2e-3 -1.1368-9e-3 -1.3866-0.012z"/>
    <path d="m112.24 252.71c6e-3 -0.0251 0.0194-0.0933 0.0283-0.15097 0.0229-0.14959 0.0507-0.19696 0.11506-0.19696 0.0487 0 0.0599 0.0186 0.0827 0.13754 0.0146 0.0754 0.0325 0.16405 0.0399 0.19697 0.013 0.057 7e-3 0.0594-0.13235 0.0594-0.12773 0-0.1443-5e-3 -0.13367-0.046z"/>
    <path d="m111.34 252.61c-0.1224-9e-3 -6.1022-0.0878-6.6671-0.0876-0.20666 6e-5 -0.37103-5e-3 -0.36526-0.0121 0.0204-0.0226 3.9584-0.1236 6.342-0.16251l1.092-0.0179-0.0768 0.14753c-0.0836 0.16043-0.0625 0.15182-0.32476 0.13203z"/>
   </g>
   <g stroke-width=".021787">
    <path d="m115.11 252.51c-0.59621-3e-3 -1.1909-9e-3 -1.5038-0.0138-0.0773-1e-3 -0.18532-3e-3 -0.24013-3e-3l-0.0997-2e-3v-0.0496l5e-3 -2e-5c3e-3 -2e-5 0.0875-2e-3 0.18746-5e-3 0.63635-0.0155 1.136-0.0236 1.7393-0.0277l0.34909-2e-3 0.0145 0.0155c8e-3 9e-3 0.0305 0.0324 0.05 0.0529l0.0355 0.037-0.10985-3.6e-4c-0.0605-2.1e-4 -0.25301-1e-3 -0.42798-2e-3z"/>
    <path d="m114.93 252.5c-0.34481-2e-3 -0.81108-5e-3 -1.0562-9e-3 -0.44356-5e-3 -0.55293-7e-3 -0.5727-9e-3l-0.0211-1e-3v-0.0241l0.11928-3e-3c0.0656-2e-3 0.15834-3e-3 0.20605-5e-3 0.50051-0.012 1.0572-0.0207 1.6918-0.0248l0.24789-2e-3 0.0144 0.0138c8e-3 9e-3 0.0251 0.0257 0.0382 0.0396l0.0238 0.0251-0.2014-2.9e-4c-0.11078-1.7e-4 -0.33125-1e-3 -0.48995-2e-3z"/>
    <path d="m114.88 252.49c-0.18328-1e-3 -0.72853-5e-3 -0.90888-7e-3 -0.10113-1e-3 -0.27401-3e-3 -0.38421-5e-3 -0.11021-1e-3 -0.2157-3e-3 -0.23445-3e-3 -0.0369-2e-3 -0.0317-2e-3 0.33154-0.0103 0.47026-0.0121 0.98893-0.0189 1.6401-0.0232l0.21483-2e-3 0.0253 0.0257c0.0139 0.0138 0.0253 0.0262 0.0253 0.0267 0 6e-4 -0.50015 3.8e-4 -0.70956-5.8e-4z"/>
   </g>
   <path d="m75.82 193.03c-1.8848-0.0138-4.6269-0.0714-6.106-0.12755-0.39991-0.0155-0.45602-0.0222-0.41662-0.053 0.03813-0.0298 0.77198-0.0343 4.5267-0.0291l4.4812 7e-3 -0.13155 0.11052-0.13155 0.11051-0.73131-7e-3c-0.40222-3e-3 -1.0731-9e-3 -1.4908-0.0121z" stroke-width=".24649"/>
   <path d="m114.72 252.47c-0.10955-5e-3 5e-3 -9e-3 0.32358-0.0103 0.31871-2e-3 0.49554 2e-3 0.50021 0.0103 8e-3 0.0138-0.51353 0.0138-0.82379 0z" stroke-width=".12324"/>
   <path d="m114.58 252.46c0.0145-3e-3 0.0356-3e-3 0.0467 2.9e-4 0.0112 3e-3 -5.3e-4 5e-3 -0.0264 5e-3 -0.0257-1.4e-4 -0.0348-3e-3 -0.0203-5e-3z" stroke-width=".12324"/>
   <path transform="matrix(.26458 0 0 .26458 0 87)" d="m393.09 118.12c0-0.0351 0.13805-0.1542 0.30677-0.26475 0.21671-0.14199 0.71923-0.21979 1.7118-0.26501 0.85437-0.0389 1.4397-0.1201 1.4934-0.20712 0.0616-0.0996 0.19151-0.062 0.42791 0.12393 0.43424 0.34157 0.38143 0.35644-1.6164 0.4551-0.88769 0.0438-1.7736 0.11162-1.9688 0.15065-0.19512 0.039-0.35476 0.0423-0.35476 7e-3z" stroke-width="1.25"/>
   <path transform="matrix(.26458 0 0 .26458 0 87)" d="m394.5 117c6e-3 -6e-3 0.24234-0.17728 0.62977-0.45693 0.12153-0.0877 0.24223-0.17486 0.26822-0.19364l0.0473-0.0341 0.14057 0.0991c0.54475 0.38397 0.63461 0.44897 0.62529 0.45233-0.0166 6e-3 -0.13427 0.0227-0.14117 0.02-4e-3 -1e-3 -0.0625-0.0421-0.13087-0.0906-0.22159-0.15694-0.38892-0.27124-0.41979-0.28674-0.0381-0.0191-0.0795-0.0203-0.1177-3e-3 -0.0424 0.0188-0.13987 0.0793-0.29115 0.18072-0.13222 0.0887-0.34953 0.23887-0.41167 0.28459-0.0256 0.0188-0.0315 0.0207-0.0773 0.024-0.0273 2e-3 -0.067 5e-3 -0.0883 7e-3 -0.0253 2e-3 -0.0368 1e-3 -0.0331-2e-3z" stroke-width=".055243"/>
   <path transform="matrix(.26458 0 0 .26458 0 87)" d="m394.6 116.96c5e-3 -5e-3 0.68015-0.49412 0.80438-0.58269l0.0365-0.026 0.27561 0.19467c0.43765 0.3091 0.42411 0.299 0.40658 0.3031-0.0446 0.0104-0.0467 9e-3 -0.18344-0.0872-0.19972-0.1411-0.35833-0.24948-0.39584-0.27047-0.0713-0.0399-0.12134-0.0375-0.2042 0.01-0.10055 0.0575-0.38619 0.24786-0.59769 0.3983-0.0786 0.0559-0.0868 0.0604-0.11601 0.0632-0.0216 2e-3 -0.0297 1e-3 -0.0259-3e-3z" stroke-width=".055243"/>
   <path transform="matrix(.26458 0 0 .26458 0 87)" d="m395.32 116.47c0-8.5e-4 0.0268-0.0207 0.0596-0.0441l0.0596-0.0426 0.0383 0.027c0.0211 0.0148 0.0376 0.0276 0.0368 0.0284s-0.0144-1e-3 -0.0302-5e-3c-0.0188-4e-3 -0.0362-5e-3 -0.0505-3e-3 -0.0255 3e-3 -0.0696 0.018-0.0928 0.0313-0.0159 9e-3 -0.0208 0.011-0.0208 8e-3z" stroke-width=".039062"/>
   <g stroke-width="2.6458">
    <path d="m136.84 157.02c-0.33237 2.742-0.88668 5.4474-1.2292 8.1898-0.10452 1.963-0.61418 4.0039-0.19784 5.9572 0.38847 0.89558 1.3837 0.7898 2.2179 0.81984 1.3155 0.069 2.6388-0.1125 3.9451 0.067 1.5126 0.15607 2.4974 1.3626 3.4614 2.4134 0.70899 0.78837 0.35492 0.39506 1.0622 1.1799l-6.6199 4.0096c-0.70402-0.78115-0.3516-0.39185-1.0573-1.1679-0.90454-0.95546-1.7817-1.8827-3.186-1.9174-1.3126-0.056-2.6277 0.0263-3.9404-0.0495-1.2159-0.12371-2.277-0.42443-2.7379-1.6835-0.42137-2.072 0.10363-4.2052 0.26672-6.2823 0.36807-2.6566 0.87595-5.3063 1.0418-7.983l6.9735-3.5532z"/>
    <path d="m142.17 166.95c0.23832 1.8894 0.86287 3.6954 1.5638 5.4559 0.57162 1.494 1.5697 2.7671 2.1315 4.2592 0.0733 0.17497 0.14655 0.34994 0.21982 0.52491l-6.7992 3.804c-0.0745-0.18588-0.14892-0.37175-0.22339-0.55762-0.52473-1.4946-1.4649-2.8031-2.0296-4.2856-0.7372-1.7985-1.3019-3.645-1.7896-5.5263l6.9267-3.6746z"/>
    <path d="m138.05 160.11c1.176 2.4618 2.0285 5.0514 2.8445 7.6489 0.75619 2.4926 1.7912 4.8877 2.7089 7.323 0.46022 1.556 0.98597 3.0527 1.7351 4.4913 0.35738 0.47942 0.79332 0.89248 1.2084 1.3209 0.1045 0.10785 0.18975 0.24126 0.31841 0.31869 0.0424 0.0255 0.18656-0.0641 0.14267-0.0412-2.2748 1.1859-4.5586 2.3544-6.8379 3.5316 0.0395 0.0226 0.12371 0.11313 0.11857 0.0679-0.13518-1.1902-1.266-3.5079-1.7735-4.6211-1.0233-1.8432-1.9618-3.723-2.8238-5.6457-0.71056-1.8843-1.217-3.834-1.8968-5.7341-0.0444-0.12931-0.46764-1.4374-0.62847-1.6703-0.0291-0.0421-0.19163 0.0717-0.14545 0.0495 2.2327-1.0724 4.3418-2.4624 6.7061-3.2007 0.37612-0.11746-0.14845 0.7748-0.19186 1.1664-0.062 0.55909-0.0826 1.122-0.12396 1.683-0.31929 4.6821-0.0669 9.3657 0.31533 14.034 0.148 2.5913 0.58831 5.1414 1.0263 7.6938 0.83177 2.7511 0.44386 1.005-6.7561 3.439-0.24213 0.0819 0.0747-0.50597 0.0976-0.76054 0.0992-1.1043 0.0904-2.2001 0.0515-3.3064 0.0295-2.2196-0.81973-4.0945-1.9277-5.9541-1.5929-2.3964-3.1387-4.8211-4.43-7.395-1.0303-1.9272-1.6396-3.9689-1.9637-6.1173-0.1192-1.335-0.33951-2.7067-0.0788-4.0329 4.9184-7.2346 8.3462-4.6583 12.591-1.3952 2.5895 2.1234 4.7155 4.7229 6.6012 7.4731 0.6251 0.96472 1.2221 1.9485 1.6087 3.0358 0.0628 0.17653 0.097 0.36222 0.15675 0.53979 0.0443 0.13156 0.27994 0.32589 0.15506 0.3865-2.3496 1.1404-4.8136 2.0285-7.2204 3.0428-0.4006-2.1351-0.91124-4.2466-1.2902-6.3858-0.12263-0.90107-0.29152-1.7993-0.521-2.6798-0.0453-0.17371-0.0843-0.35081-0.15554-0.51558-0.0138-0.0319-0.12094-0.0367-0.09-0.0524 2.2866-1.1679 4.5995-2.2835 6.8992-3.4253-0.39823 1.8506-0.25242 3.7714-0.49395 5.6522-0.80579 3.7538-2.1209 3.1164-7.4947 5.8741-0.48539 0.24909-1.5609-1.3445-1.7344-1.6126-0.78065-1.5394-0.9187-3.3215-1.7194-4.8547-0.66143 2.6691 3e-3 -0.21227 6.7078-3.367 0.1422-0.0669-0.11748 0.29339-0.14869 0.44741-0.047 0.2322-0.0716 0.46911-0.0849 0.70565-0.039 0.69283 5e-3 0.89862 0.0693 1.5688 0.5461 3.1708 2.5273-0.27763-6.8133 4.0494-0.082 0.038 0.10312-0.15243 0.1272-0.23959 0.0572-0.20709 0.0906-0.79751 0.10513-0.98874 0.0816-3.1228-2.8697-0.0769 7.0283-3.8817 0.19755-0.0759-0.0252 0.42255-0.0341 0.634-0.0338 0.80375-0.0391 1.2641-0.0573 2.0944-0.0937 2.4877 0.42483 4.9359 0.75257 7.389 0.15669 0.86699 0.31518 1.7337 0.4789 2.5993 0.5271 2.7868 2.5679-0.64802-6.6762 3.9172 0.35849-3.0228 0.2839-6.0882 0.2897-9.1291-0.0245-2.4838 0.0393-4.9704-0.33479-7.4325-0.95955-2.6926-0.36009-0.69622 6.8548-3.5427 0.23672-0.0934-0.29967 0.41723-0.39567 0.65291-0.58548 1.4373-0.74137 3.0772-0.97077 4.5938-0.39305 3.0421-0.49293 6.1097-0.53064 9.1734l-6.7402 3.4098c0.13932-3.0942 0.26655-6.1909 0.56104-9.2752 0.17778-1.5563 0.40716-3.0802 0.67437-4.6221 0.05-0.28843-0.1186-0.71772 0.13253-0.86814 7.2509-4.3429 6.8884-6.1536 7.2714-3.1155 0.20731 2.5401 0.23287 5.0776 0.15383 7.6256-7.9e-4 3.0281-0.0299 6.0589 0.0809 9.0851-8.1268 4.8056-6.6678 6.1914-7.6411 0.49351-0.27584-2.4906-0.74468-4.9744-0.7764-7.481-0.0147-0.62447-0.15806-2.5665-0.1045-2.5997 10.916-6.7694 7.1142-6.1563 6.9524-3.227-9e-3 0.34524-0.0311 0.69039-0.0266 1.0357 2e-3 0.14805 0.15269 0.36912 0.0247 0.44349-6.1656 3.5812-6.8606 6.2541-7.2552 2.7859-0.0711-0.81011-0.13292-1.5993-0.12001-2.4126 3e-3 -0.20152-0.16169-0.49235 6e-3 -0.60461 6.788-4.5525 5.3283-6.1756 7.2456-3.7427 0.56677 1.5727 0.90666 3.2323 1.5959 4.7557 0.18802 0.25779 0.39775 0.68867 0.77923 0.75188 0.12336 0.0204 0.4636-0.17855 0.35827-0.11116-9.6906 6.1999-6.4268 5.4683-5.4838 2.4051 0.33165-1.8892 0.307-3.8037 0.24022-5.7166 5.3537-2.9227 6.6046-6.4751 7.3161-2.9846 0.18589 0.91191 0.36205 1.8276 0.44945 2.7553 0.33758 2.0865 0.81035 4.1398 1.3969 6.1708-2.3188 1.2582-4.6995 2.4083-6.9563 3.7745-0.10995 0.0666 0.18083 0.35644 0.27562 0.26964 0.074-0.0677-0.12972-0.97418-0.23722-1.2493-0.27183-0.6957-0.79682-1.5381-1.163-2.1697-1.8206-2.692-3.8464-5.2752-6.4261-7.2868-1.176-0.85046-2.3948-1.8475-3.8215-2.2558-0.28441-0.0814-1.121 0.073-0.88173-0.10091 4.6977-3.4136 8.5056-4.2395 5.5382-3.55-0.087 0.12387-0.2205 0.22574-0.26098 0.37159-0.052 0.18729-4e-3 0.38872-4e-3 0.58309-2e-3 0.92371 0.0111 1.8485 0.0955 2.769 0.23564 2.0842 0.77649 4.0797 1.7375 5.9576 1.2373 2.5788 2.7674 4.9832 4.4294 7.308 1.2426 1.926 2.1226 3.9538 2.1154 6.2929 0.0691 1.1165 0.0803 2.221 0.0785 3.3394-5.3e-4 0.26607 0.21322 0.64684-6e-3 0.79819-2.2302 1.5425-4.6231 2.8471-7.0407 4.0752-0.14033 0.0713-0.0396-0.31229-0.0594-0.46843-0.32816-2.6296-0.65461-5.2561-0.73138-7.9092-0.32457-4.6754-0.52967-9.3563-0.47902-14.045 5.3e-4 -0.55291 1e-3 -1.1058 2e-3 -1.6587 5.3e-4 -0.40385-0.31418-0.96018 2e-3 -1.2115 6.8191-5.4228 6.4331-6.5147 7.7873-2.2484 0.6543 1.8822 1.2773 3.7708 1.9396 5.6481 0.81392 1.9374 1.6791 3.8453 2.7179 5.6767 0.86753 1.7671 1.5934 3.5922 2.3659 5.4016-6.7783 3.5518-5.3842 5.6574-7.6152 3.1465-0.44408-0.49977-0.95742-0.93978-1.3077-1.5177-0.74378-1.4868-1.2906-3.0092-1.6796-4.6299-0.87544-2.47-1.8872-4.8924-2.6571-7.4-0.75148-2.5638-1.5899-5.1245-2.9785-7.4255l6.7745-3.8573z"/>
    <path d="m74.052 163.53c0.58723 0.32996 1.1165 0.73789 1.6118 1.1925 0.68917 0.66083 1.2854 1.4077 1.9055 2.1315 0.50402 0.6263 1.0942 1.1703 1.7022 1.6926 0.07184 0.0551 0.14088 0.1141 0.21553 0.16536 0.06038 0.0415 0.21476 0.15585 0.31514 0.11669 0.04087-0.016 0.12412-0.1205 0.08515-0.10034-1.576 0.81536-1.8631 1.402-1.4911 0.72247 0.20336-0.60573 0.08708-1.1977-0.11367-1.7844-0.23248-0.59706-0.62384-1.1084-1.0575-1.5727-0.05578-0.0561-0.10936-0.11451-0.16735-0.16833-0.05404-0.0502-0.20423-0.18438-0.28939-0.21063-0.02942-9e-3 -0.1189 0.0238-0.09194 9e-3 1.7619-0.97062 2.0627-1.2913 1.5546-0.77739-0.16007 0.53547-0.14304 1.1174-0.08262 1.668 0.02889 0.40893 0.32284 0.76001 0.27544 1.1732-0.60218 0.28818-1.1788 0.63727-1.8066 0.86453-0.06267 0.0227-0.06841-0.11491-0.09423-0.17637-0.07679-0.18283-0.10388-0.34366-0.15337-0.53689-0.26784-1.0459 0.1 0.42407-0.18024-0.70202-0.17805-0.64234-0.19567-1.3125-0.33322-1.9619-0.2162-0.6272-1.0019 0.10543 1.6586-0.94696 0.059-0.0233-0.02524 0.12453-0.03229 0.18758-0.02125 0.18962-0.02904 0.47864-0.03648 0.66113-0.04111 0.87883 0.0071 1.7566 0.06876 2.633 0.08265 1.1285 0.29521 0.85555-1.7139 1.4154-0.08302 0.0231-0.02846-0.17005-0.03897-0.25558-0.0136-0.11071-0.02225-0.22197-0.03336-0.33296-0.04859-0.7453-0.14115-1.4866-0.2022-2.2308-0.0998-0.90843-0.35515-0.34656 1.6985-1.1489 0.05339-0.0208-0.01915 0.11315-0.02416 0.17026-0.02 0.22873-0.0241 0.50612-0.03068 0.73119-0.03038 0.91876 0.0079 1.8381-0.0095 2.7568-0.12753 1.0768-0.50392 1.0222-1.9775 1.4912-0.08474 0.027-0.08192-0.15876-0.10926-0.24339-0.03299-0.10211-0.04722-0.20937-0.07083-0.31405-0.13029-1.0391-0.13097-2.0905-0.15282-3.1364-0.0063-0.2602-0.0087-0.53942-0.02849-0.80117-0.05659-0.74768-0.54452-0.41526 1.7079-0.83895 0.11804-0.0222-0.01183 0.23993-0.01622 0.35996-0.0062 0.16811-0.01032 0.33629-0.01548 0.50444-0.03236 1.3048-0.03667 2.6096 0.02808 3.9132 0.01479 0.16852 0.02551 0.33744 0.0444 0.50554 0.01405 0.12511 0.03166 0.24992 0.05439 0.37375 0.01315 0.0717 0.02246 0.1459 0.05313 0.21198 6e-3 0.0129 0.04517-0.0339 0.03234-0.0277-1.7569 0.83865-1.8767 1.4-1.5779 0.53281 0.30836-1.0732 0.39515-2.1916 0.4613-3.3011 0.05219-1.2117 0.05851-2.4251 0.05602-3.6378 0.0024-0.50357-0.0079-1.007-0.01609-1.5105l1.6683-0.85033c-0.0067 0.50887-0.01564 1.0177-0.01426 1.5267-0.0071 1.2179-0.0053 2.4363-0.06475 3.6532-0.05696 1.1047-0.13325 2.211-0.36569 3.2954-0.16329 0.93504 0.0042 0.398-1.8174 1.3331-0.03773 0.0194-0.05349-0.069-0.06377-0.11011-0.05141-0.20594-0.03858-0.42281-0.05267-0.63461-0.01151-0.17316-0.02122-0.34643-0.03185-0.51965-0.03345-1.303-0.02061-2.606-0.05081-3.9091-0.0056-0.16261-0.01005-0.32526-0.0168-0.48783-0.0047-0.11418-0.10552-0.26929-0.01767-0.34239 2.2607-1.8812 1.7558-1.6873 1.7077-0.90329-0.01815 0.29526-0.0145 0.5186-0.01648 0.82233 0.0077 1.0247 0.0061 2.0586 0.18513 3.0707 0.02463 0.0896 0.04309 0.18114 0.07391 0.26881 0.01521 0.0432 0.10129 0.096 0.0635 0.12196-0.51924 0.35614-1.0922 0.62708-1.6308 0.95308-0.03501 0.0212 0.08911-7e-3 0.11705-0.037 0.10329-0.11055 0.13608-0.35511 0.16542-0.48108 0.05987-0.91649 0.02469-1.8367 0.02119-2.7544-0.0062-0.25837-8e-3 -0.45569-0.02328-0.70845-0.0036-0.0595-0.06575-0.14606-0.0155-0.17812 1.9718-1.2578 1.735-1.5288 1.765-0.59722 0.04188 0.74324 0.11081 1.4839 0.19441 2.2235 0.01527 0.10446 0.02743 0.20942 0.04584 0.31337 0.01347 0.076 0.11059 0.17876 0.04971 0.22628-0.52203 0.40757-1.124 0.7008-1.686 1.0512 0.0088-0.0336 0.02421-0.0662 0.02653-0.10097 0.0038-0.0569-0.01297-0.55353-0.01334-0.56568-0.03115-0.88093-0.08856-1.7612-0.07776-2.643-5.3e-4 -0.0494-0.0049-0.56688-0.0063-0.65099-0.0011-0.0674-0.06036-0.16346-0.0052-0.20217 1.0841-0.76046 1.6533-1.6789 1.8124-0.81006 0.09072 0.6566 0.12403 1.3225 0.29233 1.9665 0.08547 0.32165 0.16814 0.65026 0.27506 0.96566 0.02315 0.0683 0.05121 0.13502 0.08287 0.19979 0.01405 0.0288 0.08065 0.0624 0.05369 0.0796-0.53709 0.34313-1.1073 0.63148-1.6609 0.94722 0.03085 9e-3 0.0659 0.0433 0.09256 0.0256 0.02796-0.0186 0.01931-0.0655 0.0181-0.0991-0.01201-0.32984-0.25271-0.62194-0.25083-0.95757-0.06773-0.57819-0.07341-1.162-0.0045-1.7409 0.16129-0.82688 0.0083-0.27415 1.8281-1.1467 0.07322-0.0351 0.53017 0.4238 0.58024 0.48966 0.43398 0.49715 0.82641 1.0345 1.0743 1.651 0.12086 0.34245 0.24881 0.70713 0.27972 1.0725 0.02262 0.26746-0.04319 0.54569-0.06553 0.8108-0.01651 0.065 0.0048 0.1557-0.04954 0.19493-0.12156 0.0877-1.3678 1.446-2.0682 1.0289-0.10597-0.0631-0.2986-0.23498-0.38272-0.30651-0.5952-0.54498-1.1762-1.1059-1.6849-1.7346-0.60655-0.7236-1.2058-1.458-1.8937-2.107-0.5046-0.42782-1.0313-0.84418-1.654-1.0871l1.6309-1.0926z"/>
    <path d="m67.681 164.89c-0.03532 0.50963 0.06963 1.0137 0.20797 1.5009 0.17679 0.50432 0.39684 0.98696 0.64162 1.4611 0.15368 0.35266 0.41163 0.62074 0.66738 0.89765 0.22443 0.27307 0.37117 0.59181 0.47802 0.92603 0.0907 0.33265 0.15203 0.67154 0.21729 1.0097 0.06363 0.32419 0.11764 0.64739 0.21005 0.96501 0.10609 0.20391 0.18316 0.42088 0.28104 0.62818l-1.7008 0.9614c-0.09821-0.21706-0.17343-0.44419-0.28473-0.65592-0.10415-0.32109-0.15128-0.65188-0.21646-0.9822-0.07364-0.33037-0.11873-0.66694-0.20886-0.99403-0.09065-0.31156-0.2307-0.59778-0.43782-0.85003-0.26303-0.29254-0.51873-0.58607-0.6773-0.95278-0.24136-0.4891-0.46481-0.98158-0.64253-1.4985-0.15904-0.49322-0.252-1.0086-0.28177-1.5264l1.7469-0.89009z"/>
    <path d="m65.192 188.66c0.6046 0.66838 1.3688 1.1717 2.1066 1.6802 1.455 0.98008 2.9864 1.8385 4.4984 2.7261 1.9569 1.2074 3.8649 2.493 5.7666 3.785 0.72505 0.48303 1.4377 0.9976 2.1956 1.43 0.15135 0.0863 0.29895 0.19042 0.46789 0.23309 0.09135 0.0231 0.36322-0.0869 0.27916-0.0444-0.49212 0.24908-1.0089 0.44604-1.5134 0.66906 0.01037-0.16177 0.04346-0.32368 0.03114-0.48532-0.10413-1.3652-0.88411-2.889-1.5152-4.0807-0.62171-1.101-1.3746-2.1448-2.3889-2.9132 0.50643-0.37406-0.47328-0.0436-0.36398-0.10728 0.57163-0.33285 1.1172-0.7273 1.7356-0.96218 0.10493-0.0399 0.17676 0.13888 0.27089 0.20004 0.37154 0.24142 0.63725 0.36495 1.0419 0.57531 1.8324 0.91563 3.7811 1.5637 5.727 2.1891 0.36712 0.11695 0.89484 0.29596 1.2901 0.38857 0.09357 0.0219 0.36481-9e-3 0.28483 0.0446-0.5263 0.35052-1.1227 0.58243-1.6786 0.88368-0.0368 0.0199-0.05675 0.0874-0.09773 0.0788-0.13865-0.0289-0.25678-0.11955-0.38518-0.17932-1.7853-0.83211-3.6615-1.4365-5.5453-1.999-1.8112-0.53799-3.6643-0.9038-5.5416-1.1042-0.41369 0.0158-0.86504-0.15131-1.2776-0.0368-0.06134 0.017-0.21859 0.13057-0.16318 0.0992 1.6325-0.92345 1.0115-1.0588 1.6417-0.91534 0.53629 0.28557 1.1272 0.4408 1.7186 0.56277 0.53856 0.10093 1.0896 0.0994 1.6208 0.23891 0.31048 0.10734 0.60947 0.24624 0.92252 0.34542 0.03157 0.0817 0.2012-0.0134 0.24559 0.0581 0.38823 0.62501-1.1548 0.93402-1.8193 1.25-0.10811 0.0514-0.23842 0.0223-0.35785 0.0306-0.16799 0.0117-0.33622 0.0195-0.50433 0.0293-1.2499 0.0306-2.4979 0.0844-3.7456 0.16386-0.56877 0.016-1.1273 0.12924-1.6907 0.19662-0.04227 6e-3 -0.16163 0.0435-0.12681 0.0187 0.55489-0.39463 1.1111-0.79025 1.6977-1.1359 0.06125-0.0361 0.14201 7e-3 0.21306 0.01 0.108 4e-3 0.21603 8e-3 0.32407 0.0106 0.37834 0.01 0.57267 0.0114 0.96393 0.0169 1.4368 0.11279 2.8755 0.18531 4.3159 0.22905 1.1281 0.0287 2.2567 0.0292 3.385 0.0286 0.8317 1e-3 1.6634-2e-3 2.4951-0.0123 0.09267-1e-3 0.18534-2e-3 0.27802-4e-3l-1.5499 1.1263c-0.08945-1e-3 -0.1789-2e-3 -0.26835-3e-3 -0.82104-9e-3 -1.6421-0.01-2.4632-0.0117-1.1139-8e-3 -2.2276-0.026-3.3408-0.0676-1.4498-0.0553-2.8979-0.14486-4.3477-0.19861-0.45144 5e-3 -0.9035 0.0164-1.355 0.0132-0.08148-5.3e-4 -0.3032 0.0504-0.24438-6e-3 1.2112-1.1611 0.86062-1.1076 1.5804-1.173 0.54235-0.0613 1.0844-0.1336 1.6313-0.13799 1.2465-0.0547 2.4945-0.0765 3.739-0.16645 0.17588-0.02 0.35258-0.0337 0.52763-0.06 0.126-0.0189 0.4758-0.15282 0.37473-0.0753-0.45815 0.35162-1.0144 0.56194-1.4705 0.91624-0.09201 0.0715 0.31924 0.16795 0.0567 0.0898-0.05196-0.0155-0.10446-0.0291-0.15668-0.0436-0.3013-0.11145-0.59519-0.24379-0.90302-0.33718-0.52194-0.11719-1.0552-0.15729-1.5798-0.26072-0.63015-0.14006-1.2899-0.29509-1.842-0.63974-0.0445-0.0643-0.19391-0.14328-0.1335-0.19295 0.56167-0.46182 1.1451-1.0817 1.8712-1.1213 0.40989-0.0224 0.81604 0.0839 1.2218 0.11517 1.8445 0.26934 3.6662 0.66739 5.4533 1.2009 1.923 0.57539 3.8317 1.1927 5.7069 1.9108 0.14343 0.0514 0.29684 0.0807 0.4303 0.15428 1.0167 0.56009-0.32544 0.73589-1.4053 1.1912-0.07824 0.033-0.15864-0.0606-0.23789-0.0911-0.15926-0.0613-0.31817-0.12342-0.47765-0.18409-0.23882-0.0908-0.47817-0.18031-0.71726-0.27046-1.9495-0.67997-3.9179-1.3195-5.8037-2.1666-0.45722-0.21396-0.69733-0.31514-1.1223-0.55141-0.1156-0.0643-0.42613-0.10546-0.33949-0.2054 1.2204-1.4078 1.1059-1.4714 1.8861-0.94539 0.96237 0.85197 1.7188 1.9061 2.3131 3.0432 0.57036 1.0917 1.111 2.1946 1.4582 3.3806 0.0701 0.23941 0.14329 0.47882 0.18971 0.72392 0.03354 0.17707 0.03293 0.35893 0.0494 0.5384-0.59061 0.41447-1.1463 0.88377-1.7718 1.2434-0.08321 0.0478-0.19398-0.0225-0.28095-0.0631-0.15481-0.0722-0.29297-0.17607-0.43498-0.27104-0.71494-0.47812-1.407-0.99211-2.1083-1.4896-1.8833-1.3197-3.8097-2.5808-5.7871-3.7553-1.5382-0.87034-3.0804-1.7365-4.5644-2.6979-0.78963-0.51566-1.6141-1.0183-2.2874-1.6844 0 0 1.7013-0.96871 1.7013-0.96871z"/>
    <path d="m105.79 110.68c1.3066 0.54662 2.6258 1.0641 3.9399 1.5927 1.1181 0.46991 2.2379 0.93566 3.3616 1.392 0.0814 0.0327 0.23536 0.0108 0.24419 0.0981 0.11529 1.1394-0.21275 2.3049-0.43196 3.3999l-4.6437 2.2653c0.0852-0.5696 0.15553-1.1416 0.25555-1.7088 0.0524-0.29732 0.21051-0.58124 0.20152-0.88302-3e-3 -0.0852-0.15406-0.0729-0.23109-0.10941-1.0693-0.51182-2.1418-1.0176-3.2477-1.4469-1.3344-0.53973-2.6762-1.0691-4.0535-1.4906l4.6051-3.1094z"/>
    <path d="m106.47 114.57c-0.53123 2.1832-0.63288 4.4418-0.73786 6.6773-0.11577 2.6577-0.10341 5.3188-0.0823 7.9782 4e-3 0.87377 0.0205 1.7474 0.0374 2.621 6e-3 0.33418-0.0278 0.77816 0.0733 1.1147-1.6561 0.789-3.26 1.6988-4.9684 2.367-0.13543 0.053 0.0218-0.29004 0.0293-0.43527 0.0119-0.23065 0.0222-0.46141 0.0291-0.69228 0.0285-0.96816 0.0344-1.9377 0.048-2.9061 0.0349-2.5063 0.0189-5.0128 0.0111-7.5193-0.0164-0.9941-2e-3 -1.9897-0.0374-2.9835-6e-3 -0.1809-0.0159-0.36188-0.0343-0.54197-6e-3 -0.0626-0.0955-0.15569-0.0396-0.18451 1.6259-0.83783 3.3056-1.5668 4.9584-2.3502 0.0857 2.5067 0.67792 5 1.2397 7.4392 0.40769 1.5136 0.78471 3.0367 1.222 4.5424 0.22576 0.77738 0.44325 1.5413 0.85082 2.2422 0.07-2.0569 0.0675 0.27674-4.6599 2.2143-0.19269 0.079 0.0897-0.40737 0.11517-0.61405 0.035-0.28324 0.0499-0.56869 0.066-0.85363 0.0362-0.64093 0.0495-1.4882 0.0638-2.1212 0.0209-2.4892 0.0243-4.9786 8e-3 -7.4678-0.15682-1.7574 0.21524-3.6023-0.21186-5.3295-1.7892 0.39626-2.1896 0.49439 4.626-2.3209 0.19362-0.08-0.24938 0.33973-0.33974 0.52873-0.50737 1.0611-0.82586 2.2623-1.2014 3.3726-0.83734 2.2027-1.1831 4.5672-2.0416 6.7596-1.0402 1.9809-4.8442 4.7437-5.4829 2.0709-0.20742-0.86795-0.1661-1.8295-0.19621-2.7131-0.04694-2.0607-0.05909-4.1219-0.07381-6.1831-0.02854-1.2672 0.01286-2.5378-0.0449-3.8042-0.17572-2.0463-2.9662 0.80953 4.9428-2.6359 0.0732-0.0319-9e-3 0.15952-0.0114 0.23934-8e-3 0.22265-9e-3 0.43042-0.0124 0.65381-0.0429 0.77779 5e-3 1.5368 0.17182 2.2966 0.44254 1.3132 0.64181 2.6847 0.86026 4.0477 0.13951 1.8296 0.52734 3.6209 0.82012 5.4288 0.17956 1.275 0.42459 2.5409 0.65628 3.8078 0.0773 0.50191 0.22963 0.98655 0.3732 1.472l-4.8192 2.6294c-0.14343-0.50403-0.30711-1.0046-0.38296-1.5249-0.25458-1.2759-0.41958-2.5733-0.59628-3.8617-0.26635-1.8094-0.66262-3.5966-0.82577-5.4204-0.22352-1.3371-0.43487-2.6911-0.92488-3.9619-0.21956-0.79096-0.29886-1.5837-0.25647-2.4046-7.94e-4 -0.0525-0.06394-0.84456-0.02416-0.86769 7.6434-4.4425 5.1099-4.4183 4.9404-2.3997-0.061 1.2848-0.0299 2.5738-0.0638 3.8594-0.022 2.059-0.0476 4.1192 0.03 6.1774 0.0404 0.72117 0.0515 1.1822 0.14306 1.8861 0.0273 0.21003 0.0654 0.41867 0.10817 0.62609 0.0183 0.0887 0.15155 0.21296 0.0749 0.26111-1.5254 0.9578-3.156 1.7378-4.7096 2.6491-0.0995 0.0584 0.22391-0.0557 0.33587-0.0835 1.2374-1.9708 1.3515-4.6206 2.2402-6.7604 0.34622-1.1106 0.71747-2.2154 1.0205-3.3389 0.0603-0.2237-0.0262-0.54882 0.16859-0.67431 4.9364-3.1807 4.0118-4.2703 5.3267-2.3986 0.31494 1.8144 0.0225 3.6791 0.10269 5.5095-6e-3 2.4862 0.0167 4.9724 0.0219 7.4587 5e-3 0.98742 5e-3 1.9743-3e-3 2.9617-2e-3 0.22319 0.17092 0.53176-5e-3 0.66958-4.5962 3.6082-3.5649 4.5296-5.1177 2.8622-0.80908-2.2809-1.1288-4.7179-1.8474-7.0269-0.5996-2.4441-1.1419-4.9048-1.6394-7.3713 1.6528-0.90089 3.2773-1.8558 4.9584-2.7027 0.068-0.0342-0.0326 0.14908-0.0396 0.22486-0.0177 0.19183-0.0277 0.38438-0.0343 0.57691-0.0345 1.0066-0.0216 2.0148-0.0374 3.0216-8e-3 2.5027-0.0238 5.0055 0.0109 7.5081 0.0134 0.95236 0.0189 1.9058 0.047 2.858 7e-3 0.22124 0.0166 0.44238 0.0284 0.66341 7e-3 0.13596 0.14367 0.33502 0.0284 0.40748-1.5959 1.0031-3.3131 1.799-4.9697 2.6984 0.0831-0.38556 0.0618-0.80069 0.0684-1.1904 0.0149-0.88719 0.0305-1.7744 0.0381-2.6617 0.0363-2.6782 0.0796-5.3563 0.14564-8.034 0.0851-2.2059 0.16357-4.4169 0.44952-6.608l4.981-2.4352z"/>
    <path d="m109.49 160.88c-0.20539 2.2655-0.0533 4.5116 0.28954 6.7536 0.49721 2.9059 1.4275 5.7026 2.5332 8.4271 0.12061 0.25926 0.58236 1.2629 0.73678 1.5561 0.18398 0.34929 0.44878 0.79099 0.53587 0.76089 0.0945-0.0327 0.08-0.3444-0.01-0.29979-1.5989 0.79716-3.1127 1.7549-4.669 2.6323-0.18909-1.6806-0.7283-3.3183-1.2077-4.9366-0.11369-0.36771-0.22634-0.73575-0.34108-1.1031-0.10689-0.34229-0.20785-0.68657-0.32381-1.0259-0.27272-0.79811-0.67117-1.5578-0.72779-2.4092 1.6431-0.93937 3.2071-2.033 4.9292-2.8181 0.16307-0.0743 0.23017 0.27482 0.34141 0.41534 0.11891 0.15022 0.23914 0.29973 0.34893 0.45675 0.55754 0.79737 1.0249 1.6578 1.5124 2.4983 1.0166 1.4906 1.7606 3.2376 3.0227 4.5469 1.9289-0.17513 1.2228-0.13941-4.4456 2.3865-0.14694 0.0655 0.18473-0.27094 0.22595-0.42644 0.24159-0.91118 0.0989-1.9964 0.0569-2.9171-0.1619-2.5786-0.99476-5.0313-1.9839-7.3956-0.71179-1.5054-1.4958-3.0477-2.6645-4.2554-0.42303-0.26059-0.93278-0.48397-1.4403-0.50275-1.1766-0.0435-7.7813 4.1227 3.2229-2.0465-1.4512 1.0527-1.7413 2.9316-2.0121 4.5879-0.31649 2.5055-0.29087 5.0356-0.29399 7.5559 0.15004 1.1616 0.10577 3.1005 0.90745 4.0587 0.0872 0.1042 0.21993 0.15958 0.32989 0.23936 0.10554-0.0155 0.22082 5.3e-4 0.31662-0.0464 0.12038-0.0589 0.42576-0.32213 0.30743-0.25917-1.4512 0.77214-2.8331 1.6755-4.3132 2.3906-0.22234 0.10742 0.3546-0.34724 0.49882-0.54768 0.34718-0.48255 0.66718-1.2305 0.91301-1.7496 0.85991-2.1032 1.6897-4.2049 2.2166-6.4185 0.53993-3.0986 0.75146-2.6076 5.4496-4.4528 0.14419-0.0566 0.53908 1.1481 0.54645 1.1685 0.62721 1.6296 1.1516 3.2938 1.6912 4.9537 0.28331 0.85314 0.13658 0.42872 0.44011 1.2733l-4.7602 2.6374c-0.31409-0.86284-0.16558-0.42905-0.44566-1.3014-0.47752-1.6627-0.93027-3.3439-1.6992-4.9019-0.94649-2.211-1.0294-0.15225 4.2804-3.3147 0.0993-0.0592-0.23994 0.072-0.30286 0.16899-0.15279 0.23548-0.32597 1.274-0.35989 1.4442-0.53864 2.2426-1.3918 4.3639-2.1989 6.5187-0.17134 0.41271-0.79806 2.2212-1.1812 2.478-1.6482 1.1045-3.3763 2.0883-5.118 3.0384-0.14388 0.0785-0.33046 0.0532-0.49121 0.0213-0.16459-0.0327-0.30512-0.13973-0.45768-0.20959-0.12983-0.13803-0.28153-0.25835-0.3895-0.41408-0.85928-1.2395-0.7297-2.9435-0.92478-4.3607 0.0215-2.5399 0.0678-5.0828 0.25135-7.6168 0.21573-1.7349 0.46303-3.6492 1.7068-4.9772 2.941-1.6718 5.0916-4.4283 7.9915-2.2493 1.1145 1.3318 1.9173 2.9191 2.6086 4.5018 0.96987 2.4303 1.8566 4.9054 2.0829 7.5357 0.0888 0.99798 0.17137 1.9929 0.151 2.9962-5e-3 0.22362 0.14728 0.54408-0.0376 0.66994-4.7171 3.2109-3.5624 3.9504-5.3676 2.5562-1.0893-1.4926-1.963-3.1305-2.9499-4.6899-0.49178-0.80806-0.97333-1.6247-1.5842-2.3513-0.11277-0.13413-0.22828-0.2678-0.36127-0.38192-0.0461-0.0395-0.218-0.0383-0.16734-0.0717 1.5017-0.99048 3.058-1.8956 4.587-2.8434-0.0433 0.0632-0.12337 0.11319-0.13 0.18951-0.0233 0.26819 0.2069 1.0008 0.26455 1.1873 0.31199 1.0091 0.63982 2.0136 0.94821 3.0242 0.51918 1.6819 1.0392 3.3634 1.512 5.0589-1.5859 1.0566-3.1088 2.2143-4.7576 3.1697-0.14314 0.0829-0.48468-0.55563-0.49671-0.57772-0.38678-0.71063-0.66471-1.4693-0.98005-2.2126-1.0092-2.8044-1.9222-5.6496-2.4595-8.5872-0.39676-2.2088-0.63528-4.4181-0.65455-6.6636l4.951-2.5226z"/>
    <path d="m65.806 158.76c1.9303 2.2227 3.8692 4.4385 5.7719 6.6862 3.6726 4.3229 7.6874 8.3287 11.847 12.179 1.1477 0.98054 2.1892 2.0808 3.3159 3.084 0.11078 0.0986 0.23891 0.17626 0.35179 0.27247 0.04411 0.0376 0.1682 0.0991 0.11787 0.12783-1.6329 0.93228-3.3203 1.7656-4.9804 2.6484-1.11-1.466-2.1549-2.97-3.1524-4.5144-1.152-1.8261-2.1164-3.756-3.0907-5.6792-0.59647-1.2783-1.2044-2.5429-1.9289-3.7542-0.53252-1.0434-1.0812-2.0783-1.6225-3.1172-0.44049-0.95675-0.87451-1.429-1.7595-1.9466-0.79704-0.5394-1.7149-0.8415-2.5933-1.2153-0.9707-0.34394-0.18861-0.0789-1.1599-0.37562-0.80456-0.24581-1.1489-0.4159-1.807 0.18612 1.4778-0.83457 2.9268-1.7223 4.4334-2.5037 0.0096-5e-3 -0.22366 0.19019-0.21532 0.62998 0.01013 0.53417 0.29155 0.98023 0.54254 1.4299 0.8859 1.3566 1.9456 2.5833 3.0374 3.7756 0.83587 0.77695 1.6216 1.6051 2.4157 2.4239 0.72966 0.7632 1.3203 1.6502 1.9605 2.4892 0.66378 0.72989 1.1236 1.6004 1.6618 2.4167 0.55555 0.87216 1.0407 1.7876 1.5865 2.6652l-4.7487 2.7531c-0.5178-0.88871-1.028-1.7785-1.5818-2.6461-0.52002-0.81221-0.98982-1.659-1.6303-2.3882-0.62421-0.82454-1.2042-1.6922-1.9312-2.431-0.79182-0.82212-1.566-1.6609-2.3608-2.4801-1.0966-1.2407-2.1826-2.4958-3.1351-3.8526-2.027-3.4748 0.19975-3.263 4.2592-5.7436 1.1061-0.30826 2.1771 0.26534 3.2142 0.61496 0.92053 0.36417 1.8584 0.69775 2.6824 1.2615 0.86276 0.55007 1.4591 1.2869 1.8784 2.2268 0.52109 1.0382 1.0876 2.0531 1.6139 3.0881 0.70073 1.2389 1.29 2.532 1.8588 3.836 0.93094 1.9218 1.8728 3.8428 3.0125 5.6522 0.98992 1.5115 2.0286 2.994 3.2879 4.2973-1.5361 1.0054-3.0727 2.0101-4.6084 3.0161-0.01381 9e-3 0.05041-0.0106 0.04264-0.0252-0.06654-0.12467-0.15525-0.23653-0.2419-0.34817-0.19279-0.24838-0.39033-0.49328-0.59588-0.73121-0.98282-1.1376-1.2391-1.356-2.3841-2.5231-4.0359-3.9963-8.0417-8.0239-11.886-12.207-1.9782-2.1848-3.983-4.3516-6.1705-6.3311l4.692-2.9472z"/>
    <path d="m77.91 172.45c-1.4871-0.39461-2.8223-1.1858-4.1932-1.8606-2.0316-1.1022-4.0682-2.1897-6.1593-3.1768-1.5693-0.80393-3.1563-1.5596-4.7766-2.2551-0.21111-0.0376-0.9392-0.61811-1.1587-0.56165-0.0597 0.0153-0.09674 0.2097-0.04279 0.1799 4.8661-2.6882 4.0239-4.4578 4.8426-2.4659 0.58266 1.0438 1.337 1.9746 2.2055 2.7917 0.90458 0.77666 1.985 1.2752 3.0238 1.8379 0.93675 0.4635 1.9334 0.70515 2.8123 1.2818 0.15419 0.1142 0.30839 0.22841 0.46258 0.34262l-4.6177 2.9374c-0.14917-0.10128-0.29834-0.20256-0.44752-0.30384-0.89669-0.49221-1.8886-0.76028-2.7782-1.2705-1.0835-0.57411-2.1844-1.1214-3.09-1.9689-0.90776-0.87039-1.6897-1.859-2.3638-2.9212-1.1326-2.0283-0.46362-0.51575 4.3997-3.6291 0.01916-0.0123 1.1923 0.70819 1.297 0.73571 1.571 0.75673 3.1311 1.5313 4.6811 2.3305 2.0839 1.0083 4.11 2.1267 6.1772 3.1666 1.3742 0.64562 2.7407 1.4143 4.265 1.6252l-4.5388 3.1844z"/>
    <path d="m137.2 176.18c0.3637 1.331 1.0496 2.5682 1.6768 3.7925 0.79984 1.4328 1.7352 2.7801 2.6099 4.1678 0.80083 1.2734 1.7986 2.3925 2.8944 3.4152 0.80325 0.69237 1.5661 1.4673 2.4867 2.0054 0.71817 0.37829 1.2267 0.99195 1.6581 1.6624 0.48166 0.67998 0.73597 1.4512 0.8823 2.2622 0.14333 0.75351 0.38596 1.4845 0.64147 2.2064 0.31773 0.70797 0.38681 1.4805 0.55979 2.2258l-4.8647 2.625c-0.17903-0.72398-0.20155-1.4872-0.51656-2.1781-0.27954-0.74844-0.51895-1.5154-0.69525-2.2947-0.10781-0.7451-0.31521-1.4494-0.77049-2.064-0.39733-0.60956-0.88477-1.1173-1.5328-1.4655-0.89191-0.62647-1.6701-1.4028-2.4756-2.1334-1.1084-1.0723-2.1175-2.2415-2.9574-3.539-0.86263-1.4109-1.8007-2.7726-2.593-4.225-0.66636-1.2628-1.3595-2.5238-1.9028-3.8439l4.8992-2.6194z"/>
    <path d="m133.06 154.94c-0.12123 2.4486-0.1381 4.9023-0.17176 7.3535-0.11684 3.6957 0.0237 7.3815 0.71072 11.017 0.40192 1.9975 1.2179 3.8686 2.1872 5.6492 0.47097 0.82213 0.80138 1.7179 1.0918 2.6178 0.0411 0.11491 0.0822 0.22982 0.12336 0.34472l-4.8255 2.6751c-0.0457-0.12326-0.0913-0.24652-0.137-0.36977-0.2551-0.8793-0.56544-1.7498-0.97914-2.5672-0.9266-1.8721-1.6783-3.843-2.0623-5.9021-0.61577-3.6785-0.77201-7.3954-0.70652-11.123-0.0333-2.3928-0.0486-4.7884-0.17177-7.1785l4.941-2.5176z"/>
    <path d="m96.016 241.11c1.5766 1.0684 2.4224 2.9504 3.2484 4.599 1.6981 3.6318 3.3277 7.2948 4.9461 10.963 1.1736 2.6742 2.48 5.2908 4.0032 7.7833 0.01 0.0131 0.38978 0.68912 0.64502 0.65466 0.0696-9e-3 0.16163-0.2179 0.0992-0.18574-1.5639 0.80598-3.041 1.7806-4.6357 2.5237-0.15509 0.0723 0.15709-0.30485 0.21748-0.46493 0.0818-0.2168 0.13874-0.44217 0.20811-0.66325 0.43607-1.8194 0.52164-3.6974 0.58479-5.56 0.0169-1.0411 0.0391-2.0841 9e-3 -3.1253-4e-3 -0.14136-0.14818-0.35757-0.0231-0.42361 1.6096-0.85004 3.3311-1.4686 4.9966-2.203 0.69729 3.0658 1.7246 6.0355 2.9275 8.9357 0.85862 1.8892 0.63633 1.4867 1.57 3.2249 0.2682 0.4993 0.81555 1.5688 1.2491 2.0497 0.47366 0.52538 0.40607 0.28627 0.50029-0.10609-1.5093 0.747-2.8959 1.8254-4.5278 2.241-0.35748 0.091 0.0623-0.73581 0.0662-1.1047 5e-3 -0.48985-0.0141-0.97986-0.0387-1.4691-0.0977-1.947-0.2952-3.8896-0.49444-5.8281-0.20857-1.7608-0.36775-3.5281-0.61869-5.2838-0.08-0.55958-0.15108-1.6094-0.48608-2.1503 1.6696-0.7895 3.2544-1.7915 5.0089-2.3685 0.21693-0.0713 0.14146 0.43427 0.20997 0.65211 0.0953 0.30299 0.18362 0.60817 0.28138 0.91038 0.44215 1.3667 0.90744 2.7262 1.381 4.0823 0.53826 1.1934 0.83888 2.5201 1.506 3.6575 0.0907 0.15471 0.17187 0.4137 0.35113 0.40774 0.14209-5e-3 0.19684-0.47389 0.0647-0.42156-1.5357 0.60804-2.9725 1.4409-4.4587 2.1614 0.58684-4.0268 0.46572-8.1269 0.38155-12.184-0.16287-2.891-0.21784-5.8-0.6807-8.6645-0.19421-1.2019-0.38216-1.9374-0.64999-3.098-0.12193-0.3783-0.22465-0.76333-0.3658-1.1349-0.12401-0.3264-0.44307-1.0762-0.7507-1.3651-0.0663-0.0622-0.34191-0.0319-0.26214-0.0755 5.0342-2.7544 5.5826-3.7705 4.4068-1.9248-0.54091 2.7341-0.47275 5.5641-0.3026 8.3328 0.33422 3.2208 1.0718 6.3878 1.8449 9.5279 0.1474 0.68105 0.26941 0.96843 0.21561 1.6419-0.17983 2.2514-5.0622 3.2655-5.5126 3.4349-0.2112 0.0795-0.34953-0.28548-0.5243-0.42821-1.5505-1.4162-2.3049-3.3565-3.1186-5.2395-1.1928-2.7088-2.3974-5.4136-3.6539-8.0936-0.18058-0.32855-0.34863-0.66431-0.54174-0.98566-0.15718-0.26153-0.60702-0.95105-0.88845-1.1917-0.0649-0.0555-0.31596-0.0444-0.24135-0.0859 5.0157-2.7925 5.572-4.0351 4.6705-2.2107 0.0159 0.20952 0.0114 0.42162 0.0478 0.62856 0.0878 0.49893 0.39482 1.4559 0.52775 1.9033 0.40739 1.3712 0.84262 2.7324 1.2688 4.0979 0.78911 2.749 1.8002 5.4246 3.0519 7.9945 1.3137 2.8481 1.4033 1.6698-4.2657 4.098-0.15721 0.0673-0.16567-0.29937-0.24175-0.45254-0.10274-0.20686-0.19637-0.41813-0.29455-0.62719-0.88172-1.8074-1.4159-3.7535-2.0482-5.6558-0.51636-1.7163-0.92667-3.5772-1.9847-5.0602-1.8518-0.67906-0.42912-0.10551 4.5848-2.4565 0.0953-0.0447-0.16477 0.14479-0.20109 0.24362-0.0738 0.2007-0.0922 0.41813-0.12005 0.63014-0.11138 0.84917-0.0706 0.90678-0.0388 1.7918 0.26697 2.3524 0.88374 4.6478 1.5347 6.9184 0.30041 1.1916 1.0593 2.5137 0.38866 3.6932-4.3093 2.5831-4.772 4.4684-6.7816 0.98315-0.64151-1.2878-1.0366-2.6775-1.5798-4.0044-1.488-1.2669-0.32741-0.21808 4.754-2.4979 0.086-0.0386-0.093 0.16908-0.10487 0.26258-0.0256 0.20158-8e-3 0.40639-6e-3 0.60958 8e-3 0.92152 0.0184 0.8454 0.0873 1.8141 0.22285 1.8682 0.66191 3.737 1.3664 5.4856 1.2838 1.5264 0.29839 0.26167-4.7759 2.531-0.0892 0.0399 0.11359-0.16492 0.1349-0.26029 0.047-0.21026 0.0567-0.42766 0.0669-0.64286 0.0269-0.57274-0.0112-1.411-0.0278-1.9641-0.0864-2.6253-0.20613-5.2531-0.50633-7.8637-0.0461-0.33064-0.0844-0.66248-0.13839-0.99194-0.0375-0.22924-0.0844-0.45701-0.13601-0.6835-0.0308-0.13524-0.0628-0.27098-0.11118-0.40099-0.0121-0.0325-0.0982-0.0634-0.0674-0.0793 5.0638-2.6091 5.579-4.1202 4.819-2.1553-0.1762 1.9062-0.14093 3.8258-0.15161 5.7383-0.0681 1.768 0.16337 3.5495-0.0613 5.3088-0.74709 2.2615-2.9272 2.5212-5.4288 3.7014-0.3046 0.1437-1.0381-1.2259-1.1221-1.3804-0.89807-2.2034-1.291-4.5673-1.7374-6.8926-0.41084-2.4517-0.70465-4.9191-1.1735-7.3612-0.05399-0.21186-0.09457-0.4276-0.16199-0.63558-0.24443-0.75403-0.08152 0.23752 0.02941 0.18699 1.6085-0.73272 3.0003-1.891 4.6121-2.6165 0.17634-0.0794-0.0584 0.38253-0.0763 0.57507-0.0255 0.27334-0.0358 0.54787-0.0538 0.8218 9e-3 2.3889 0.31965 4.766 0.50072 7.1463 0.0511 0.69629 0.0789 1.2586 0.17713 1.9437 0.37346 2.605 1.9779-0.0877-4.6207 3.3292l5.062-2.341c-1.6528 0.92545-3.2657 1.9259-4.9583 2.7763-0.07594 0.0382-0.09931-0.14136-0.12438-0.22256-0.05427-0.17579-0.12589-0.99659-0.13094-1.0513-0.09992-1.0827-0.0751-0.84378-0.12625-1.9871-0.15216-2.3896-0.41666-4.7668-0.60491-7.1525-0.0021-0.27086-0.0047-0.54172-0.0063-0.81258-0.0011-0.19879-0.15514-0.46989-0.0019-0.59637 0.04864-0.0401 3.8819-5.0412 5.0371-2.9293 0.16969 0.31025 5e-3 0.75106 0.19377 1.043 0.38382 2.4656 0.64741 4.9472 1.0583 7.4084 0.45747 2.2436 0.87268 4.5446 1.8236 6.6405 0.0981 0.1545 0.34244 0.63848 0.58372 0.74361 0.0575 0.0251 0.23673-0.0764 0.18315-0.0437-1.4713 0.8979-2.9663 1.7563-4.4438 2.6439-0.10881 0.0654 0.24368-0.0911 0.33724-0.17695 0.11043-0.10127 0.17166-0.24564 0.25749-0.36846 0.42498-1.7198 0.13716-3.5317 0.23309-5.2842-0.01-1.8982-4e-3 -3.7966-0.0524-5.6943-0.19584-2.2839-0.18256-0.60316 4.9828-3.041 0.0689-0.0325 0.0514 0.14416 0.0656 0.21906 0.0482 0.25463 0.12206 1.0164 0.14005 1.1903 0.0352 0.34024 0.0692 0.6806 0.10382 1.0209 0.23453 2.6204 0.37683 5.2488 0.54321 7.8742 0.065 0.87224 0.11769 1.7399 0.16015 2.6126 8e-3 0.1644 0.18237 0.4056 0.0422 0.49197-4.9614 3.0581-4.3541 4.326-5.1507 2.323-0.48189-1.871-1.0552-3.7286-1.3234-5.6457-0.0921-0.80295-0.13868-1.6126-0.24126-2.4139-0.0224-0.17476-0.23315-0.42675-0.0847-0.5217 4.9016-3.1363 4.217-4.3286 5.159-2.3904 0.40387 1.3431 0.8603 2.6711 1.4854 3.9303 0.27533 0.43591 0.55333 0.96175 1.0197 1.2325 0.26609 0.15451 0.47956-0.07 0.42395-0.0365-1.4884 0.89723-2.985 1.781-4.4774 2.6715 0.0936-0.0488 0.20106-0.0772 0.28085-0.14633 0.72657-0.62935-0.13926-2.3831-0.24724-3.1188-0.61754-2.312-1.2374-4.6341-1.6184-6.9983-0.0793-0.858-0.0779-1.6634-0.0498-2.522 6e-3 -0.17928-0.13659-0.44308 0.0157-0.53791 4.8821-3.0404 3.8427-4.0504 5.317-2.3711 0.87535 1.6456 1.4286 3.4462 1.9283 5.2348 0.62258 1.8704 1.1329 3.7985 2.0924 5.5337 0.1071 0.18671 0.2051 0.37894 0.3213 0.56012 0.0675 0.10519 0.33007 0.22438 0.22851 0.29717-5.6129 4.0228-4.025 4.2823-5.1252 1.4542-1.1569-2.64-2.1254-5.3548-2.9798-8.1078-0.73992-2.2206-1.5727-4.4175-2.2009-6.671-0.31102-2.3581-0.26768-0.80577 4.9343-3.2345 0.11257-0.0526 0.18208 0.17059 0.25815 0.26881 0.29267 0.37788 0.60672 0.93022 0.82353 1.3338 0.18279 0.34028 0.35076 0.68832 0.52613 1.0325 1.1823 2.7146 2.3742 5.4251 3.6269 8.1081 0.83267 1.7517 1.5911 3.6206 3.1436 4.8714 2.0014 0.91793 0.4498 0.0654-4.0142 2.8661-0.101 0.0634 0.25001-0.0281 0.34241-0.10348 0.27646-0.2255 0.34375-0.70991 0.33691-1.0182-7e-3 -0.31099-0.0863-0.61612-0.12945-0.92418-0.64501-3.212-1.3399-6.4243-1.7184-9.6802-0.24615-2.7791-0.3424-5.5766-0.0907-8.3604 0.27968-2.5333-0.0696-1.0624 5.1952-3.3876 0.13637-0.0602 0.23178 0.1932 0.31691 0.31559 0.26927 0.38709 0.56673 1.1543 0.69764 1.5559 0.129 0.39575 0.22211 0.80231 0.33317 1.2035 0.19182 1.0257 0.41541 2.1655 0.55985 3.1926 0.40879 2.9069 0.4503 5.8441 0.58603 8.7718 0.10767 4.0341 0.20613 8.0729 0.0686 12.107-1.5988 1.205-3.1164 2.526-4.7963 3.615-0.29834 0.19341-0.57004-0.46814-0.71221-0.79402-0.5333-1.2225-0.88519-2.5211-1.4184-3.744-0.58281-1.6358-1.1778-3.2685-1.8468-4.8714-0.0816-0.19557-0.43347-0.44613-0.26682-0.57703 1.4622-1.1486 3.1611-1.9587 4.7417-2.9381-0.14008 0.45847 0.12739 1.9424 0.16602 2.3115 0.18625 1.7791 0.33696 3.5608 0.52272 5.34 0.26465 2.4092 0.58711 4.8226 0.76782 7.2398 0.0278 0.37243 0.32229 0.85267 0.0602 1.1188-1.386 1.4076-3.1382 2.4004-4.7073 3.6006-0.7608-0.33988-0.88012-0.76932-1.2713-1.5284-0.77192-1.4978-1.478-3.0313-2.1664-4.5687-1.2084-2.8835-2.2223-5.8362-3.2782-8.7762 1.5771-0.98712 3.0899-2.0854 4.7313-2.9614 0.1323-0.0706-0.0189 0.29939-0.0238 0.44927-0.0343 1.0576-0.0311 2.1166-0.0698 3.1742-0.063 1.8869-0.15603 3.7752-0.47482 5.6396-0.0321 0.15261-0.23436 1.1642-0.28081 1.1969-3.4243 2.4094-4.294 4.6168-5.8231 1.9716-1.379-2.5997-2.6192-5.2722-3.7761-7.9776-1.5705-3.6699-3.2529-7.2925-5.0528-10.856-0.55421-0.9865-1.9173-3.7295-3.2008-3.9342l4.4954-3.2661z"/>
    <path d="m98.639 228.24c-0.06224 1.3093-0.05981 2.621-0.06364 3.9316-0.0037 1.9218-0.05381 3.844 0.0088 5.765-0.03061 2.1547 0.48047 4.2141 1.0436 6.2714 0.53736 1.4076 1.0267 2.8343 1.5786 4.2363 0.3542 0.93106 0.7608 1.8418 1.2498 2.7099 0.54431 0.80175 1.1319 1.574 1.6759 2.3766 0.64763 0.96068 1.2332 1.9644 1.7591 2.9965 0.57002 0.93213 0.94026 1.9643 1.2912 2.9935 0.34671 1.1992 0.86121 2.3414 1.2989 3.5088 0.48894 1.3367 0.90275 2.7026 1.5499 3.9745l-4.7574 2.7076c-0.63449-1.3022-0.99262-2.7075-1.5147-4.0552-0.4518-1.1658-1.0504-2.2782-1.3947-3.4816-0.33104-1.0105-0.64435-2.034-1.1996-2.9504-0.5211-1.0121-1.1458-1.9637-1.7676-2.9158-0.54766-0.8161-1.1617-1.5866-1.6912-2.4156-0.51242-0.88959-0.94183-1.8201-1.2692-2.7944-0.53487-1.4329-0.98996-2.895-1.5284-4.327-0.5592-2.0954-1.0549-4.2042-1.0761-6.3889-0.09765-1.9163-0.05338-3.8351-0.08076-5.7534-0.0038-1.2889-5.29e-4 -2.5791-0.06365-3.8667l4.951-2.5226z"/>
    <path d="m97.91 244.28c0.34276 1.76 0.8966 3.463 1.4268 5.1722 0.89626 2.4203 1.8297 4.8402 2.9276 7.1779 0.15481 0.29243 0.29969 0.59035 0.46444 0.8773 0.0811 0.14128 0.43972 0.82065 0.7274 0.92034 0.0627 0.0217 0.22598-0.13878 0.16723-0.10795-4.7711 2.5034-5.5145 4.0134-4.4691 2.1095 0.29226-1.6175 0.23723-3.277 0.23408-4.9147-0.0057-0.74135-0.0052-1.4832-0.02588-2.2243-0.0047-0.16691-0.01196-0.33375-0.02101-0.50047-0.0186-0.34253 0.01233-0.40672-0.03971-0.2667 1.6489-0.76346 3.23-1.6951 4.9468-2.2904 0.18518-0.0642-0.0256 0.39119-0.0338 0.58701-0.0111 0.26476-0.0186 0.52967-0.0243 0.79459-0.0209 0.97678-0.0219 1.9544-0.0325 2.9313-6e-3 1.8899-0.0212 3.7813 0.0496 5.6702 0.13893 2.2651 1.262 0.45312-4.9106 2.8254-0.13538 0.052 0.0074-0.29043-0.0029-0.43509-0.03657-0.51239-0.11829-1.0206-0.17878-1.5307-0.23443-2.5256-0.38611-5.055-0.65182-7.5786-0.40509-2.3808-0.77954-4.7657-1.1579-7.1506-0.40475-1.733-1.5969-0.41405 4.7208-2.6742 0.19783-0.0708-0.0433 0.41808-0.0568 0.62776-0.0415 0.64261-0.0635 1.5566-0.0828 2.1732-0.12513 3.3731-0.044 6.7424 0.1283 10.112 0.0734 1.163 0.10895 2.329 0.21653 3.4898 0.0167 0.18026 0.032 0.36111 0.0638 0.53934 0.0133 0.0747 0.0801 0.29181 0.071 0.21644-0.012-0.0984-0.053-0.19105-0.0795-0.28658-1.5532 0.8237-3.0643 1.7323-4.6597 2.4711-0.14317 0.0663 0.16276-0.27158 0.22387-0.41704 0.08269-0.19685 0.14991-0.40048 0.20609-0.60646 0.25256-0.92594 0.33052-1.8815 0.42501-2.8323 0.20562-2.8748 0.22086-5.7598 0.22997-8.6408-0.06525-2.0894 0.07461-4.1981-0.13703-6.2818-1.5972-0.94664-0.66981-0.38309 4.9256-2.2894 0.18586-0.0633-0.0258 0.39187-0.0346 0.58802-0.0126 0.28275-0.0212 0.56568-0.0297 0.84859-0.0245 0.81677-0.0408 1.6587-0.0586 2.4738-0.0791 3.9961-0.10541 7.9933-0.0822 11.99 0.0173 2.5798 0.0974 5.1585 0.14057 7.7379 0.0973 2.5993 0.63527 1.2188-4.8965 3.3293-0.17127 0.0653 0.03612-0.36493 0.04688-0.54793 0.02975-0.50611 0.05982-1.6308 0.07325-2.0681 0.05927-3.5541 0.12448-7.1096 0.04347-10.664-0.10626-3.5619-0.19849-7.1367-0.64213-10.676-0.18089-1.007-0.3072-2.0298-0.57446-3.0198-0.0381-0.14113-0.074-0.28534-0.14102-0.41525-0.0099-0.0193-0.07833 0.0374-0.05895 0.0276 1.617-0.81489 3.2346-1.6287 4.8519-2.443-0.35243 2.1223-0.26708 4.3178-0.27907 6.4667-4e-3 2.7052 0.0105 5.4103 0.0424 8.1154 0.0742 1.4761 0.25994 2.9423 0.36279 4.4165-0.0212 1.145 0.18744 2.2546 0.54101 3.3394 0.31006 0.86252 0.71427 1.6853 1.0193 2.5503 0.0526 0.13901 0.10529 0.27801 0.15794 0.41702l-4.8052 2.673c-0.05538-0.14454-0.11076-0.28908-0.16614-0.43363-0.29126-0.87528-0.72726-1.6899-1.011-2.5676-0.35535-1.1271-0.61832-2.281-0.58886-3.4695-0.07328-1.5034-0.228-3.0022-0.25364-4.508 0.02756-2.7177 0.0355-5.4355 0.03047-8.1533-0.0089-2.1615-0.01672-4.3237-0.09014-6.484 1.6571-0.93083 3.2744-1.9365 4.9714-2.7925 0.0757-0.0382 0.0875 0.1477 0.11002 0.22947 0.0497 0.18011 0.19897 1.2424 0.20352 1.2739 0.17684 1.2225 0.1468 1.03 0.31861 2.3449 0.3802 3.5756 0.42051 7.1799 0.56233 10.771 0.0819 3.5285 0.0478 7.0583 0.13299 10.587 0.0128 0.40432 0.0434 1.5159 0.0733 1.9934 0.0104 0.16713 0.18807 0.41015 0.0469 0.50017-5.7855 3.6884-4.9708 4.2654-4.8965 1.6605 0.04321-2.6271 0.12266-5.2536 0.1405-7.8811 0.02289-3.9689-0.0021-7.9383-0.08196-11.907-0.02376-1.0776-0.03775-2.1567-0.08688-3.2336-0.0084-0.18491-0.18665-0.45014-0.03363-0.5543 1.5709-1.0692 3.3025-1.8806 4.9645-2.8018 0.0229-0.0127-0.0238 0.0467-0.0358 0.07-0.18522 2.1331-0.0716 4.2838-0.13049 6.4214-7e-3 2.8733 0.0263 5.7485-0.097 8.62-0.0746 1.1785-0.13307 2.3733-0.42351 3.5234-0.0411 0.16282-5e-3 0.38868-0.14381 0.48282-1.6026 1.0849-3.3196 1.9902-4.9795 2.9853-0.36261-0.49271-0.2739-0.59872-0.27025-1.2264 0.0069-1.1899-0.03194-2.3795-0.06202-3.5688-0.09853-3.3628-0.1972-6.7248-0.22239-10.089-0.0159-0.62125-0.0366-1.4748-0.05686-2.117-0.0066-0.20821-0.18944-0.5-0.02244-0.62452 3.6477-2.7199 4.8397-4.8909 5.0128-2.3052 0.2107 2.428 0.61243 4.8295 1.0224 7.2307 0.27104 2.4972 0.48822 4.9982 0.77175 7.4932 0.0972 0.56528 0.40515 1.9341 0.37021 1.9568-6.1868 4.0196-5.0374 4.4514-4.9107 2.1788 0.0687-1.9059 0.05618-3.814 0.04953-5.7208-0.01042-0.96625-0.01114-1.9331-0.0311-2.8993-0.0053-0.25704-0.01244-0.51407-0.0231-0.77094-0.0077-0.1853-0.18443-0.44986-0.03197-0.55546 1.5651-1.084 3.2997-1.9003 4.9495-2.8505-0.19913 1.0296 0.049 2.1281-0.0549 3.165-3e-3 1.6652-9e-3 3.3318-0.097 4.995-0.15275 2.4571 0.10799 0.87014-5.043 3.4309-0.11103 0.0552-0.21984-0.12188-0.30694-0.21012-0.54696-0.55414-0.73969-1.3813-1.1309-2.0286-1.0465-2.3842-1.9767-4.8204-2.9364-7.2399-0.58464-1.6964-1.117-3.4075-1.6787-5.109l4.8992-2.6194z"/>
   </g>
  </g>
 </g>
</svg>
